# Blender v2.90.1 OBJ File: ''
# www.blender.org
mtllib IceKnifeTemp.mtl
o Cone
v 0.000000 -16.757929 -16.757929
v 3.269310 -16.757929 -16.435930
v 6.412982 -16.757929 -15.482307
v 9.310206 -16.757929 -13.933708
v 11.849645 -16.757929 -11.849645
v 13.933709 -16.757929 -9.310205
v 15.482307 -16.757929 -6.412982
v 16.435930 -16.757929 -3.269310
v 16.757929 -16.757929 -0.000001
v 16.435930 -16.757929 3.269308
v 15.482308 -16.757929 6.412979
v 13.933709 -16.757929 9.310205
v 11.849645 -16.757929 11.849645
v 9.310205 -16.757929 13.933709
v 6.412979 -16.757929 15.482309
v 3.269306 -16.757929 16.435930
v -0.000005 -16.757929 16.757929
v -3.269316 -16.757929 16.435928
v -6.412989 -16.757929 15.482304
v -9.310215 -16.757929 13.933703
v -11.849653 -16.757929 11.849638
v -13.933715 -16.757929 9.310197
v -15.482313 -16.757929 6.412969
v -16.435932 -16.757929 3.269295
v -16.757929 -16.757929 -0.000016
v -16.435926 -16.757929 -3.269327
v -15.482300 -16.757929 -6.412999
v -13.933698 -16.757929 -9.310224
v -11.849630 -16.757929 -11.849660
v -9.310187 -16.757929 -13.933722
v -6.412959 -16.757929 -15.482317
v -3.269284 -16.757929 -16.435934
v 0.000000 16.757929 0.000000
v 0.000005 -97.223709 -16.757929
v 3.269314 -97.223709 -16.435930
v 6.412987 -97.223709 -15.482307
v 9.310211 -97.223709 -13.933708
v 11.849650 -97.223709 -11.849645
v 13.933714 -97.223709 -9.310205
v 15.482312 -97.223709 -6.412982
v 16.435934 -97.223709 -3.269310
v 16.757933 -97.223709 -0.000001
v 16.435936 -97.223709 3.269308
v 15.482313 -97.223709 6.412979
v 13.933714 -97.223709 9.310205
v 11.849650 -97.223709 11.849645
v 9.310210 -97.223709 13.933709
v 6.412983 -97.223709 15.482309
v 3.269310 -97.223709 16.435930
v -0.000001 -97.223709 16.757929
v -3.269312 -97.223709 16.435928
v -6.412985 -97.223709 15.482304
v -9.310209 -97.223709 13.933703
v -11.849648 -97.223709 11.849638
v -13.933710 -97.223709 9.310197
v -15.482308 -97.223709 6.412969
v -16.435928 -97.223709 3.269295
v -16.757923 -97.223709 -0.000016
v -16.435921 -97.223709 -3.269327
v -15.482295 -97.223709 -6.412999
v -13.933692 -97.223709 -9.310224
v -11.849625 -97.223709 -11.849660
v -9.310183 -97.223709 -13.933722
v -6.412955 -97.223709 -15.482317
v -3.269280 -97.223709 -16.435934
v -0.000003 -120.181953 -1.091014
v 0.212842 -120.181953 -1.070050
v 0.417508 -120.181953 -1.007966
v 0.606129 -120.181953 -0.907146
v 0.771457 -120.181953 -0.771465
v 0.907138 -120.181953 -0.606137
v 1.007958 -120.181953 -0.417516
v 1.070042 -120.181953 -0.212850
v 1.091006 -120.181953 -0.000005
v 1.070042 -120.181953 0.212841
v 1.007958 -120.181953 0.417506
v 0.907138 -120.181953 0.606127
v 0.771457 -120.181953 0.771455
v 0.606129 -120.181953 0.907137
v 0.417508 -120.181953 1.007957
v 0.212842 -120.181953 1.070041
v -0.000003 -120.181953 1.091004
v -0.212849 -120.181953 1.070041
v -0.417515 -120.181953 1.007956
v -0.606136 -120.181953 0.907136
v -0.771464 -120.181953 0.771455
v -0.907145 -120.181953 0.606127
v -1.007965 -120.181953 0.417506
v -1.070049 -120.181953 0.212840
v -1.091012 -120.181953 -0.000006
v -1.070048 -120.181953 -0.212851
v -1.007964 -120.181953 -0.417517
v -0.907144 -120.181953 -0.606138
v -0.771462 -120.181953 -0.771466
v -0.606134 -120.181953 -0.907147
v -0.417513 -120.181953 -1.007966
v -0.212847 -120.181953 -1.070050
vt 0.250000 0.490000
vt 0.250000 0.250000
vt 0.296822 0.485388
vt 0.341844 0.471731
vt 0.383337 0.449553
vt 0.419706 0.419706
vt 0.449553 0.383337
vt 0.471731 0.341844
vt 0.485388 0.296822
vt 0.490000 0.250000
vt 0.485388 0.203178
vt 0.471731 0.158156
vt 0.449553 0.116663
vt 0.419706 0.080294
vt 0.383337 0.050447
vt 0.341844 0.028269
vt 0.296822 0.014612
vt 0.250000 0.010000
vt 0.203178 0.014612
vt 0.158156 0.028269
vt 0.116663 0.050447
vt 0.080294 0.080294
vt 0.050447 0.116663
vt 0.028269 0.158156
vt 0.014611 0.203179
vt 0.010000 0.250000
vt 0.014612 0.296822
vt 0.028269 0.341844
vt 0.050447 0.383337
vt 0.080295 0.419706
vt 0.116663 0.449553
vt 0.158156 0.471731
vt 0.471731 0.158156
vt 0.485388 0.203178
vt 0.203179 0.485389
vt 0.028269 0.158156
vt 0.014611 0.203179
vt 0.014611 0.203179
vt 0.028269 0.158156
vt 0.203178 0.014612
vt 0.250000 0.010000
vt 0.010000 0.250000
vt 0.419706 0.419706
vt 0.383337 0.449553
vt 0.203179 0.485389
vt 0.158156 0.471731
vt 0.449553 0.116663
vt 0.158156 0.028269
vt 0.014612 0.296822
vt 0.449553 0.383337
vt 0.250000 0.490000
vt 0.419706 0.080294
vt 0.116663 0.050447
vt 0.028269 0.341844
vt 0.471731 0.341844
vt 0.383337 0.050447
vt 0.080294 0.080294
vt 0.050447 0.383337
vt 0.485388 0.296822
vt 0.296822 0.485388
vt 0.341844 0.028269
vt 0.050447 0.116663
vt 0.080295 0.419706
vt 0.490000 0.250000
vt 0.296822 0.014612
vt 0.341844 0.471731
vt 0.116663 0.449553
vt 0.750000 0.490000
vt 0.796822 0.485388
vt 0.841844 0.471731
vt 0.883337 0.449553
vt 0.919706 0.419706
vt 0.949553 0.383337
vt 0.971731 0.341844
vt 0.985388 0.296822
vt 0.990000 0.250000
vt 0.985388 0.203178
vt 0.971731 0.158156
vt 0.949553 0.116663
vt 0.919706 0.080294
vt 0.883337 0.050447
vt 0.841844 0.028269
vt 0.796822 0.014612
vt 0.750000 0.010000
vt 0.703178 0.014612
vt 0.658156 0.028269
vt 0.616663 0.050447
vt 0.580294 0.080294
vt 0.550447 0.116663
vt 0.528269 0.158156
vt 0.514611 0.203179
vt 0.510000 0.250000
vt 0.514612 0.296822
vt 0.528269 0.341844
vt 0.550447 0.383337
vt 0.580295 0.419706
vt 0.616663 0.449553
vt 0.658156 0.471731
vt 0.703179 0.485389
vt 0.471731 0.158156
vt 0.485388 0.203178
vt 0.010000 0.250000
vt 0.449553 0.116663
vt 0.014612 0.296822
vt 0.419706 0.080294
vt 0.028269 0.341844
vt 0.383337 0.050447
vt 0.050447 0.383337
vt 0.341844 0.028269
vt 0.296822 0.485388
vt 0.250000 0.490000
vt 0.080295 0.419706
vt 0.296822 0.014612
vt 0.341844 0.471731
vt 0.116663 0.449553
vt 0.250000 0.010000
vt 0.383337 0.449553
vt 0.158156 0.471731
vt 0.203178 0.014612
vt 0.419706 0.419706
vt 0.203179 0.485389
vt 0.158156 0.028269
vt 0.449553 0.383337
vt 0.116663 0.050447
vt 0.471731 0.341844
vt 0.080294 0.080294
vt 0.485388 0.296822
vt 0.050447 0.116663
vt 0.490000 0.250000
vn 0.0878 0.4455 -0.8910
vn 0.2599 0.4455 -0.8567
vn 0.4220 0.4455 -0.7896
vn 0.5680 0.4455 -0.6921
vn 0.6921 0.4455 -0.5680
vn 0.7896 0.4455 -0.4220
vn 0.8567 0.4455 -0.2599
vn 0.8910 0.4455 -0.0878
vn 0.8910 0.4455 0.0878
vn 0.8567 0.4455 0.2599
vn 0.7896 0.4455 0.4220
vn 0.6921 0.4455 0.5680
vn 0.5680 0.4455 0.6921
vn 0.4220 0.4455 0.7896
vn 0.2599 0.4455 0.8567
vn 0.0878 0.4455 0.8910
vn -0.0878 0.4455 0.8910
vn -0.2599 0.4455 0.8567
vn -0.4220 0.4455 0.7896
vn -0.5680 0.4455 0.6921
vn -0.6921 0.4455 0.5680
vn -0.7896 0.4455 0.4220
vn -0.8567 0.4455 0.2599
vn -0.8910 0.4455 0.0878
vn -0.8910 0.4455 -0.0878
vn -0.8567 0.4455 -0.2599
vn -0.7896 0.4455 -0.4220
vn -0.6921 0.4455 -0.5680
vn -0.5680 0.4455 -0.6921
vn -0.4220 0.4455 -0.7896
vn 0.9569 0.0000 0.2903
vn -0.2599 0.4455 -0.8567
vn -0.0878 0.4455 -0.8910
vn -0.7916 -0.5618 0.2401
vn -0.0980 -0.0000 0.9952
vn -0.9952 -0.0000 0.0980
vn 0.6344 0.0000 -0.7730
vn -0.2903 -0.0000 -0.9569
vn 0.8819 0.0000 0.4714
vn -0.2903 -0.0000 0.9569
vn -0.9952 -0.0000 -0.0980
vn 0.7730 0.0000 -0.6344
vn -0.0980 -0.0000 -0.9952
vn 0.7730 0.0000 0.6344
vn -0.4714 -0.0000 0.8819
vn -0.9569 -0.0000 -0.2903
vn 0.8819 0.0000 -0.4714
vn 0.6344 0.0000 0.7730
vn -0.6344 -0.0000 0.7730
vn -0.8819 -0.0000 -0.4714
vn 0.9569 0.0000 -0.2903
vn 0.0980 0.0000 -0.9952
vn 0.4714 0.0000 0.8819
vn -0.7730 -0.0000 0.6344
vn -0.7730 -0.0000 -0.6344
vn 0.9952 0.0000 -0.0980
vn 0.2903 0.0000 0.9569
vn -0.8819 -0.0000 0.4714
vn 0.2903 0.0000 -0.9569
vn -0.6344 -0.0000 -0.7730
vn 0.9952 0.0000 0.0980
vn 0.0980 0.0000 0.9952
vn -0.9569 -0.0000 0.2903
vn 0.4714 0.0000 -0.8819
vn -0.4714 -0.0000 -0.8819
vn 0.0000 -1.0000 0.0000
vn 0.7916 -0.5618 0.2401
vn -0.8233 -0.5618 0.0811
vn 0.7296 -0.5618 0.3900
vn -0.8233 -0.5618 -0.0811
vn 0.6395 -0.5618 0.5248
vn -0.7916 -0.5618 -0.2401
vn 0.5248 -0.5618 0.6395
vn -0.7296 -0.5618 -0.3900
vn 0.3900 -0.5618 0.7296
vn 0.0811 -0.5618 -0.8233
vn -0.6395 -0.5618 -0.5248
vn 0.2401 -0.5618 0.7916
vn 0.2401 -0.5618 -0.7916
vn -0.5248 -0.5618 -0.6395
vn 0.0811 -0.5618 0.8233
vn 0.3900 -0.5618 -0.7296
vn -0.3900 -0.5618 -0.7296
vn -0.0811 -0.5618 0.8233
vn 0.5248 -0.5618 -0.6395
vn -0.2401 -0.5618 -0.7916
vn -0.2401 -0.5618 0.7916
vn 0.6395 -0.5618 -0.5248
vn -0.0811 -0.5618 -0.8233
vn -0.3900 -0.5618 0.7296
vn 0.7296 -0.5618 -0.3900
vn -0.5248 -0.5618 0.6395
vn 0.7916 -0.5618 -0.2401
vn -0.6395 -0.5618 0.5248
vn 0.8233 -0.5618 -0.0811
vn -0.7296 -0.5618 0.3900
vn 0.8233 -0.5618 0.0811
usemtl None
s off
f 1/1/1 33/2/1 2/3/1
f 2/3/2 33/2/2 3/4/2
f 3/4/3 33/2/3 4/5/3
f 4/5/4 33/2/4 5/6/4
f 5/6/5 33/2/5 6/7/5
f 6/7/6 33/2/6 7/8/6
f 7/8/7 33/2/7 8/9/7
f 8/9/8 33/2/8 9/10/8
f 9/10/9 33/2/9 10/11/9
f 10/11/10 33/2/10 11/12/10
f 11/12/11 33/2/11 12/13/11
f 12/13/12 33/2/12 13/14/12
f 13/14/13 33/2/13 14/15/13
f 14/15/14 33/2/14 15/16/14
f 15/16/15 33/2/15 16/17/15
f 16/17/16 33/2/16 17/18/16
f 17/18/17 33/2/17 18/19/17
f 18/19/18 33/2/18 19/20/18
f 19/20/19 33/2/19 20/21/19
f 20/21/20 33/2/20 21/22/20
f 21/22/21 33/2/21 22/23/21
f 22/23/22 33/2/22 23/24/22
f 23/24/23 33/2/23 24/25/23
f 24/25/24 33/2/24 25/26/24
f 25/26/25 33/2/25 26/27/25
f 26/27/26 33/2/26 27/28/26
f 27/28/27 33/2/27 28/29/27
f 28/29/28 33/2/28 29/30/28
f 29/30/29 33/2/29 30/31/29
f 30/31/30 33/2/30 31/32/30
f 10/11/31 11/12/31 44/33/31 43/34/31
f 31/32/32 33/2/32 32/35/32
f 32/35/33 33/2/33 1/1/33
f 56/36/34 57/37/34 89/38/34 88/39/34
f 17/18/35 18/19/35 51/40/35 50/41/35
f 24/25/36 25/26/36 58/42/36 57/37/36
f 4/5/37 5/6/37 38/43/37 37/44/37
f 31/32/38 32/35/38 65/45/38 64/46/38
f 11/12/39 12/13/39 45/47/39 44/33/39
f 18/19/40 19/20/40 52/48/40 51/40/40
f 25/26/41 26/27/41 59/49/41 58/42/41
f 5/6/42 6/7/42 39/50/42 38/43/42
f 32/35/43 1/1/43 34/51/43 65/45/43
f 12/13/44 13/14/44 46/52/44 45/47/44
f 19/20/45 20/21/45 53/53/45 52/48/45
f 26/27/46 27/28/46 60/54/46 59/49/46
f 6/7/47 7/8/47 40/55/47 39/50/47
f 13/14/48 14/15/48 47/56/48 46/52/48
f 20/21/49 21/22/49 54/57/49 53/53/49
f 27/28/50 28/29/50 61/58/50 60/54/50
f 7/8/51 8/9/51 41/59/51 40/55/51
f 1/1/52 2/3/52 35/60/52 34/51/52
f 14/15/53 15/16/53 48/61/53 47/56/53
f 21/22/54 22/23/54 55/62/54 54/57/54
f 28/29/55 29/30/55 62/63/55 61/58/55
f 8/9/56 9/10/56 42/64/56 41/59/56
f 15/16/57 16/17/57 49/65/57 48/61/57
f 22/23/58 23/24/58 56/36/58 55/62/58
f 2/3/59 3/4/59 36/66/59 35/60/59
f 29/30/60 30/31/60 63/67/60 62/63/60
f 9/10/61 10/11/61 43/34/61 42/64/61
f 16/17/62 17/18/62 50/41/62 49/65/62
f 23/24/63 24/25/63 57/37/63 56/36/63
f 3/4/64 4/5/64 37/44/64 36/66/64
f 30/31/65 31/32/65 64/46/65 63/67/65
f 66/68/66 67/69/66 68/70/66 69/71/66 70/72/66 71/73/66 72/74/66 73/75/66 74/76/66 75/77/66 76/78/66 77/79/66 78/80/66 79/81/66 80/82/66 81/83/66 82/84/66 83/85/66 84/86/66 85/87/66 86/88/66 87/89/66 88/90/66 89/91/66 90/92/66 91/93/66 92/94/66 93/95/66 94/96/66 95/97/66 96/98/66 97/99/66
f 43/34/67 44/33/67 76/100/67 75/101/67
f 57/37/68 58/42/68 90/102/68 89/38/68
f 44/33/69 45/47/69 77/103/69 76/100/69
f 58/42/70 59/49/70 91/104/70 90/102/70
f 45/47/71 46/52/71 78/105/71 77/103/71
f 59/49/72 60/54/72 92/106/72 91/104/72
f 46/52/73 47/56/73 79/107/73 78/105/73
f 60/54/74 61/58/74 93/108/74 92/106/74
f 47/56/75 48/61/75 80/109/75 79/107/75
f 34/51/76 35/60/76 67/110/76 66/111/76
f 61/58/77 62/63/77 94/112/77 93/108/77
f 48/61/78 49/65/78 81/113/78 80/109/78
f 35/60/79 36/66/79 68/114/79 67/110/79
f 62/63/80 63/67/80 95/115/80 94/112/80
f 49/65/81 50/41/81 82/116/81 81/113/81
f 36/66/82 37/44/82 69/117/82 68/114/82
f 63/67/83 64/46/83 96/118/83 95/115/83
f 50/41/84 51/40/84 83/119/84 82/116/84
f 37/44/85 38/43/85 70/120/85 69/117/85
f 64/46/86 65/45/86 97/121/86 96/118/86
f 51/40/87 52/48/87 84/122/87 83/119/87
f 38/43/88 39/50/88 71/123/88 70/120/88
f 65/45/89 34/51/89 66/111/89 97/121/89
f 52/48/90 53/53/90 85/124/90 84/122/90
f 39/50/91 40/55/91 72/125/91 71/123/91
f 53/53/92 54/57/92 86/126/92 85/124/92
f 40/55/93 41/59/93 73/127/93 72/125/93
f 54/57/94 55/62/94 87/128/94 86/126/94
f 41/59/95 42/64/95 74/129/95 73/127/95
f 55/62/96 56/36/96 88/39/96 87/128/96
f 42/64/97 43/34/97 75/101/97 74/129/97
